<svg viewBox="0 0 1600 900" xmlns="http://www.w3.org/2000/svg" role="img" aria-label="Menos código, más claridad">
  <defs>
    <linearGradient id="bgF" x1="0" y1="0" x2="1" y2="1">
      <stop offset="0%" stop-color="#1a2145"/>
      <stop offset="100%" stop-color="#2d3663"/>
    </linearGradient>
    <radialGradient id="glowF" cx="60%" cy="50%">
      <stop offset="0%" stop-color="#6e92ff" stop-opacity=".35"/>
      <stop offset="100%" stop-color="#6e92ff" stop-opacity="0"/>
    </radialGradient>
  </defs>
  <rect width="1600" height="900" fill="url(#bgF)"/>
  <ellipse cx="960" cy="450" rx="700" ry="440" fill="url(#glowF)"/>
  <!-- Left card: many messy lines -->
  <g transform="translate(240 210)">
    <rect width="500" height="480" rx="16" fill="#0f1830" stroke="#6e92ff" stroke-width="1.5" opacity=".9"/>
    <rect x="30" y="40" width="220" height="8" rx="4" fill="#6e92ff" opacity=".7"/>
    <rect x="30" y="60" width="420" height="8" rx="4" fill="#b3c6ff" opacity=".5"/>
    <rect x="60" y="80" width="380" height="8" rx="4" fill="#b3c6ff" opacity=".45"/>
    <rect x="60" y="100" width="300" height="8" rx="4" fill="#b3c6ff" opacity=".4"/>
    <rect x="90" y="120" width="330" height="8" rx="4" fill="#b3c6ff" opacity=".4"/>
    <rect x="90" y="140" width="260" height="8" rx="4" fill="#b3c6ff" opacity=".35"/>
    <rect x="60" y="160" width="400" height="8" rx="4" fill="#b3c6ff" opacity=".4"/>
    <rect x="60" y="180" width="360" height="8" rx="4" fill="#b3c6ff" opacity=".35"/>
    <rect x="90" y="200" width="310" height="8" rx="4" fill="#b3c6ff" opacity=".35"/>
    <rect x="90" y="220" width="380" height="8" rx="4" fill="#b3c6ff" opacity=".3"/>
    <rect x="60" y="240" width="260" height="8" rx="4" fill="#b3c6ff" opacity=".35"/>
    <rect x="60" y="260" width="340" height="8" rx="4" fill="#b3c6ff" opacity=".3"/>
    <rect x="90" y="280" width="290" height="8" rx="4" fill="#b3c6ff" opacity=".3"/>
    <rect x="90" y="300" width="360" height="8" rx="4" fill="#b3c6ff" opacity=".3"/>
    <rect x="60" y="320" width="300" height="8" rx="4" fill="#b3c6ff" opacity=".3"/>
    <rect x="60" y="340" width="380" height="8" rx="4" fill="#b3c6ff" opacity=".25"/>
    <rect x="90" y="360" width="260" height="8" rx="4" fill="#b3c6ff" opacity=".25"/>
    <rect x="90" y="380" width="330" height="8" rx="4" fill="#b3c6ff" opacity=".25"/>
    <rect x="60" y="400" width="220" height="8" rx="4" fill="#b3c6ff" opacity=".25"/>
    <rect x="60" y="420" width="380" height="8" rx="4" fill="#b3c6ff" opacity=".2"/>
  </g>
  <!-- arrow -->
  <g transform="translate(830 430)">
    <path d="M0 20 L100 20 L100 0 L140 30 L100 60 L100 40 L0 40 Z" fill="#6e92ff"/>
  </g>
  <!-- Right card: few clean lines -->
  <g transform="translate(1020 250)">
    <rect width="380" height="400" rx="16" fill="#1a2145" stroke="#b3c6ff" stroke-width="2"/>
    <rect x="30" y="50" width="180" height="12" rx="6" fill="#b3c6ff"/>
    <rect x="30" y="90" width="300" height="10" rx="5" fill="#6e92ff" opacity=".9"/>
    <rect x="30" y="120" width="220" height="10" rx="5" fill="#6e92ff" opacity=".75"/>
    <rect x="60" y="150" width="230" height="10" rx="5" fill="#6e92ff" opacity=".65"/>
    <rect x="30" y="200" width="140" height="30" rx="15" fill="#6e92ff"/>
  </g>
  <!-- floating dots -->
  <circle cx="200" cy="180" r="8" fill="#6e92ff" opacity=".45"/>
  <circle cx="1440" cy="200" r="6" fill="#b3c6ff" opacity=".55"/>
  <circle cx="220" cy="750" r="10" fill="#6e92ff" opacity=".4"/>
  <circle cx="1380" cy="740" r="8" fill="#6e92ff" opacity=".45"/>
</svg>
